{
    "asset" : {
        "copyright" : "Percival Websystems",
        "generator" : "Khronos glTF Blender I/O v1.5.17",
        "version" : "2.0"
    },
    "extensionsUsed" : [
        "KHR_materials_transmission"
    ],
    "scene" : 0,
    "scenes" : [
        {
            "name" : "Scene",
            "nodes" : [
                0,
                1,
                2,
                3,
                4,
                5
            ]
        }
    ],
    "nodes" : [
        {
            "mesh" : 0,
            "name" : "Case",
            "translation" : [
                0,
                0,
                0.10000000149011612
            ]
        },
        {
            "mesh" : 1,
            "name" : "Power",
            "rotation" : [
                -0.11753591895103455,
                -0.004980037920176983,
                -0.0005894269561395049,
                0.9930559992790222
            ],
            "translation" : [
                -1.2799638509750366,
                -0.47999998927116394,
                0.09700000286102295
            ]
        },
        {
            "mesh" : 2,
            "name" : "Dial_2",
            "rotation" : [
                0,
                0,
                -0.4748564064502716,
                0.8800634145736694
            ],
            "translation" : [
                1.2999999523162842,
                -0.4011858403682709,
                0.10000001639127731
            ]
        },
        {
            "mesh" : 3,
            "name" : "Dial_3",
            "rotation" : [
                0,
                0,
                0.15384815633296967,
                0.9880945086479187
            ],
            "translation" : [
                1.3000000715255737,
                -0.6000000238418579,
                0.10000000149011612
            ]
        },
        {
            "mesh" : 4,
            "name" : "DIal_1",
            "rotation" : [
                0,
                0,
                -0.23344536125659943,
                0.972369909286499
            ],
            "translation" : [
                1.3000000715255737,
                -0.20000000298023224,
                0.10000000149011612
            ]
        },
        {
            "mesh" : 5,
            "name" : "Glass",
            "scale" : [
                1.1798276901245117,
                1.0357904434204102,
                1.0357904434204102
            ],
            "translation" : [
                0,
                0,
                0.015805840492248535
            ]
        }
    ],
    "materials" : [
        {
            "doubleSided" : true,
            "name" : "Material.005",
            "pbrMetallicRoughness" : {
                "baseColorFactor" : [
                    0.025393985211849213,
                    0.025393985211849213,
                    0.025393985211849213,
                    1
                ],
                "metallicFactor" : 0,
                "roughnessFactor" : 0.5332502126693726
            }
        },
        {
            "doubleSided" : true,
            "name" : "Material.006",
            "pbrMetallicRoughness" : {
                "baseColorFactor" : [
                    0.6500057578086853,
                    0.5428690314292908,
                    0.3948424458503723,
                    1
                ],
                "metallicFactor" : 0,
                "roughnessFactor" : 0.3347826600074768
            }
        },
        {
            "doubleSided" : true,
            "name" : "Material.004",
            "pbrMetallicRoughness" : {
                "baseColorFactor" : [
                    0.39311447739601135,
                    0.003370886202901602,
                    0.005827379412949085,
                    1
                ],
                "metallicFactor" : 0,
                "roughnessFactor" : 0.5695652365684509
            }
        },
        {
            "doubleSided" : true,
            "name" : "Material.002",
            "pbrMetallicRoughness" : {
                "baseColorFactor" : [
                    0,
                    0,
                    0,
                    1
                ],
                "metallicFactor" : 0,
                "roughnessFactor" : 0.8478261232376099
            }
        },
        {
            "doubleSided" : true,
            "emissiveFactor" : [
                1,
                1,
                1
            ],
            "emissiveTexture" : {
                "index" : 0
            },
            "extensions" : {
                "KHR_materials_transmission" : {
                    "transmissionFactor" : 0.05454545468091965
                }
            },
            "name" : "Material.001",
            "pbrMetallicRoughness" : {
                "baseColorFactor" : [
                    0,
                    0,
                    0,
                    1
                ],
                "metallicFactor" : 0,
                "roughnessFactor" : 0.5
            }
        }
    ],
    "meshes" : [
        {
            "name" : "Plane.004",
            "primitives" : [
                {
                    "attributes" : {
                        "POSITION" : 0,
                        "NORMAL" : 1,
                        "TEXCOORD_0" : 2
                    },
                    "indices" : 3,
                    "material" : 0
                },
                {
                    "attributes" : {
                        "POSITION" : 4,
                        "NORMAL" : 5,
                        "TEXCOORD_0" : 6
                    },
                    "indices" : 7,
                    "material" : 1
                }
            ]
        },
        {
            "name" : "Plane.005",
            "primitives" : [
                {
                    "attributes" : {
                        "POSITION" : 8,
                        "NORMAL" : 9,
                        "TEXCOORD_0" : 10
                    },
                    "indices" : 11,
                    "material" : 2
                }
            ]
        },
        {
            "name" : "Plane.010",
            "primitives" : [
                {
                    "attributes" : {
                        "POSITION" : 12,
                        "NORMAL" : 13,
                        "TEXCOORD_0" : 14
                    },
                    "indices" : 15,
                    "material" : 3
                }
            ]
        },
        {
            "name" : "Plane.001",
            "primitives" : [
                {
                    "attributes" : {
                        "POSITION" : 16,
                        "NORMAL" : 17,
                        "TEXCOORD_0" : 18
                    },
                    "indices" : 15,
                    "material" : 3
                }
            ]
        },
        {
            "name" : "Plane.002",
            "primitives" : [
                {
                    "attributes" : {
                        "POSITION" : 19,
                        "NORMAL" : 20,
                        "TEXCOORD_0" : 21
                    },
                    "indices" : 15,
                    "material" : 3
                }
            ]
        },
        {
            "name" : "Sphere.002",
            "primitives" : [
                {
                    "attributes" : {
                        "POSITION" : 22,
                        "NORMAL" : 23,
                        "TEXCOORD_0" : 24
                    },
                    "indices" : 25,
                    "material" : 4
                }
            ]
        }
    ],
    "textures" : [
        {
            "sampler" : 0,
            "source" : 0
        }
    ],
    "images" : [
        {
            "bufferView" : 26,
            "mimeType" : "image/png",
            "name" : "DmanAll"
        }
    ],
    "accessors" : [
        {
            "bufferView" : 0,
            "componentType" : 5126,
            "count" : 5734,
            "max" : [
                1.600000262260437,
                1.0000001192092896,
                -5.1714614528464153e-05
            ],
            "min" : [
                -1.600000262260437,
                -1.0992767810821533,
                -0.88614821434021
            ],
            "type" : "VEC3"
        },
        {
            "bufferView" : 1,
            "componentType" : 5126,
            "count" : 5734,
            "type" : "VEC3"
        },
        {
            "bufferView" : 2,
            "componentType" : 5126,
            "count" : 5734,
            "type" : "VEC2"
        },
        {
            "bufferView" : 3,
            "componentType" : 5123,
            "count" : 31584,
            "type" : "SCALAR"
        },
        {
            "bufferView" : 4,
            "componentType" : 5126,
            "count" : 13339,
            "max" : [
                1.6000003814697266,
                1.0000001192092896,
                -0.3100000023841858
            ],
            "min" : [
                -1.6000003814697266,
                -1.2000013589859009,
                -2.3292429447174072
            ],
            "type" : "VEC3"
        },
        {
            "bufferView" : 5,
            "componentType" : 5126,
            "count" : 13339,
            "type" : "VEC3"
        },
        {
            "bufferView" : 6,
            "componentType" : 5126,
            "count" : 13339,
            "type" : "VEC2"
        },
        {
            "bufferView" : 7,
            "componentType" : 5123,
            "count" : 71100,
            "type" : "SCALAR"
        },
        {
            "bufferView" : 8,
            "componentType" : 5126,
            "count" : 42,
            "max" : [
                0.040273476392030716,
                0.09999999403953552,
                0.027869313955307007
            ],
            "min" : [
                -0.040324319154024124,
                -0.09999999403953552,
                -0.032930031418800354
            ],
            "type" : "VEC3"
        },
        {
            "bufferView" : 9,
            "componentType" : 5126,
            "count" : 42,
            "type" : "VEC3"
        },
        {
            "bufferView" : 10,
            "componentType" : 5126,
            "count" : 42,
            "type" : "VEC2"
        },
        {
            "bufferView" : 11,
            "componentType" : 5123,
            "count" : 84,
            "type" : "SCALAR"
        },
        {
            "bufferView" : 12,
            "componentType" : 5126,
            "count" : 373,
            "max" : [
                0.049770429730415344,
                0.07118584215641022,
                0.06660212576389313
            ],
            "min" : [
                -0.04977038502693176,
                -0.05154077708721161,
                -1.4901161193847656e-08
            ],
            "type" : "VEC3"
        },
        {
            "bufferView" : 13,
            "componentType" : 5126,
            "count" : 373,
            "type" : "VEC3"
        },
        {
            "bufferView" : 14,
            "componentType" : 5126,
            "count" : 373,
            "type" : "VEC2"
        },
        {
            "bufferView" : 15,
            "componentType" : 5123,
            "count" : 1044,
            "type" : "SCALAR"
        },
        {
            "bufferView" : 16,
            "componentType" : 5126,
            "count" : 373,
            "max" : [
                0.049770429730415344,
                0.07118584215641022,
                0.06660212576389313
            ],
            "min" : [
                -0.04977038502693176,
                -0.05154077708721161,
                -1.4901161193847656e-08
            ],
            "type" : "VEC3"
        },
        {
            "bufferView" : 17,
            "componentType" : 5126,
            "count" : 373,
            "type" : "VEC3"
        },
        {
            "bufferView" : 18,
            "componentType" : 5126,
            "count" : 373,
            "type" : "VEC2"
        },
        {
            "bufferView" : 19,
            "componentType" : 5126,
            "count" : 373,
            "max" : [
                0.049770429730415344,
                0.07118584215641022,
                0.06660212576389313
            ],
            "min" : [
                -0.04977038502693176,
                -0.05154077708721161,
                -1.4901161193847656e-08
            ],
            "type" : "VEC3"
        },
        {
            "bufferView" : 20,
            "componentType" : 5126,
            "count" : 373,
            "type" : "VEC3"
        },
        {
            "bufferView" : 21,
            "componentType" : 5126,
            "count" : 373,
            "type" : "VEC2"
        },
        {
            "bufferView" : 22,
            "componentType" : 5126,
            "count" : 424,
            "max" : [
                0.8718392848968506,
                0.7132672667503357,
                0.14573273062705994
            ],
            "min" : [
                -0.8718392848968506,
                -0.7132642269134521,
                -0.002106971573084593
            ],
            "type" : "VEC3"
        },
        {
            "bufferView" : 23,
            "componentType" : 5126,
            "count" : 424,
            "type" : "VEC3"
        },
        {
            "bufferView" : 24,
            "componentType" : 5126,
            "count" : 424,
            "type" : "VEC2"
        },
        {
            "bufferView" : 25,
            "componentType" : 5123,
            "count" : 2088,
            "type" : "SCALAR"
        }
    ],
    "bufferViews" : [
        {
            "buffer" : 0,
            "byteLength" : 68808,
            "byteOffset" : 0
        },
        {
            "buffer" : 0,
            "byteLength" : 68808,
            "byteOffset" : 68808
        },
        {
            "buffer" : 0,
            "byteLength" : 45872,
            "byteOffset" : 137616
        },
        {
            "buffer" : 0,
            "byteLength" : 63168,
            "byteOffset" : 183488
        },
        {
            "buffer" : 0,
            "byteLength" : 160068,
            "byteOffset" : 246656
        },
        {
            "buffer" : 0,
            "byteLength" : 160068,
            "byteOffset" : 406724
        },
        {
            "buffer" : 0,
            "byteLength" : 106712,
            "byteOffset" : 566792
        },
        {
            "buffer" : 0,
            "byteLength" : 142200,
            "byteOffset" : 673504
        },
        {
            "buffer" : 0,
            "byteLength" : 504,
            "byteOffset" : 815704
        },
        {
            "buffer" : 0,
            "byteLength" : 504,
            "byteOffset" : 816208
        },
        {
            "buffer" : 0,
            "byteLength" : 336,
            "byteOffset" : 816712
        },
        {
            "buffer" : 0,
            "byteLength" : 168,
            "byteOffset" : 817048
        },
        {
            "buffer" : 0,
            "byteLength" : 4476,
            "byteOffset" : 817216
        },
        {
            "buffer" : 0,
            "byteLength" : 4476,
            "byteOffset" : 821692
        },
        {
            "buffer" : 0,
            "byteLength" : 2984,
            "byteOffset" : 826168
        },
        {
            "buffer" : 0,
            "byteLength" : 2088,
            "byteOffset" : 829152
        },
        {
            "buffer" : 0,
            "byteLength" : 4476,
            "byteOffset" : 831240
        },
        {
            "buffer" : 0,
            "byteLength" : 4476,
            "byteOffset" : 835716
        },
        {
            "buffer" : 0,
            "byteLength" : 2984,
            "byteOffset" : 840192
        },
        {
            "buffer" : 0,
            "byteLength" : 4476,
            "byteOffset" : 843176
        },
        {
            "buffer" : 0,
            "byteLength" : 4476,
            "byteOffset" : 847652
        },
        {
            "buffer" : 0,
            "byteLength" : 2984,
            "byteOffset" : 852128
        },
        {
            "buffer" : 0,
            "byteLength" : 5088,
            "byteOffset" : 855112
        },
        {
            "buffer" : 0,
            "byteLength" : 5088,
            "byteOffset" : 860200
        },
        {
            "buffer" : 0,
            "byteLength" : 3392,
            "byteOffset" : 865288
        },
        {
            "buffer" : 0,
            "byteLength" : 4176,
            "byteOffset" : 868680
        },
        {
            "buffer" : 0,
            "byteLength" : 19207,
            "byteOffset" : 872856
        }
    ],
    "samplers" : [
        {
            "magFilter" : 9729,
            "minFilter" : 9987
        }
    ],
    "buffers" : [
        {
            "byteLength" : 892064,
            "uri" : "data:application/octet-stream;base64,"
        }
    ]
}
