{
    "asset" : {
        "copyright" : "Percival Websystems",
        "generator" : "Khronos glTF Blender I/O v1.5.17",
        "version" : "2.0"
    },
    "extensionsUsed" : [
        "KHR_materials_transmission"
    ],
    "scene" : 0,
    "scenes" : [
        {
            "name" : "Scene",
            "nodes" : [
                0,
                1,
                2,
                3,
                4,
                5,
                6
            ]
        }
    ],
    "nodes" : [
        {
            "mesh" : 0,
            "name" : "Glass"
        },
        {
            "mesh" : 1,
            "name" : "Case",
            "translation" : [
                0,
                0,
                0.10000000149011612
            ]
        },
        {
            "mesh" : 2,
            "name" : "Power",
            "rotation" : [
                -0.11753591895103455,
                -0.004980037920176983,
                -0.0005894269561395049,
                0.9930559992790222
            ],
            "translation" : [
                -1.2799638509750366,
                -0.47999998927116394,
                0.09700000286102295
            ]
        },
        {
            "mesh" : 3,
            "name" : "Plane.001",
            "scale" : [
                0.5600000023841858,
                0.5600000023841858,
                0.5600000023841858
            ],
            "translation" : [
                -0.9699999690055847,
                -0.9300000071525574,
                0.09999999403953552
            ]
        },
        {
            "mesh" : 4,
            "name" : "dial2.003",
            "rotation" : [
                0,
                0,
                -0.6374239921569824,
                0.7705132365226746
            ],
            "translation" : [
                1.3000000715255737,
                -0.6000000238418579,
                0.12999999523162842
            ]
        },
        {
            "mesh" : 5,
            "name" : "dial2.001",
            "rotation" : [
                0,
                0,
                -0.28401535749435425,
                0.9588197469711304
            ],
            "translation" : [
                1.3000000715255737,
                -0.4000000059604645,
                0.12999999523162842
            ]
        },
        {
            "mesh" : 6,
            "name" : "dial2.002",
            "rotation" : [
                0,
                0,
                -0.16418690979480743,
                0.9864292740821838
            ],
            "translation" : [
                1.3000000715255737,
                -0.20000000298023224,
                0.12999999523162842
            ]
        }
    ],
    "materials" : [
        {
            "doubleSided" : true,
            "emissiveFactor" : [
                1,
                1,
                1
            ],
            "emissiveTexture" : {
                "index" : 0
            },
            "extensions" : {
                "KHR_materials_transmission" : {
                    "transmissionFactor" : 0.05454545468091965
                }
            },
            "name" : "Material.001",
            "pbrMetallicRoughness" : {
                "baseColorFactor" : [
                    0,
                    0,
                    0,
                    1
                ],
                "metallicFactor" : 0,
                "roughnessFactor" : 0.5
            }
        },
        {
            "doubleSided" : true,
            "name" : "Material.005",
            "pbrMetallicRoughness" : {
                "baseColorFactor" : [
                    0.025393985211849213,
                    0.025393985211849213,
                    0.025393985211849213,
                    1
                ],
                "metallicFactor" : 0,
                "roughnessFactor" : 0.5332502126693726
            }
        },
        {
            "doubleSided" : true,
            "name" : "Material.006",
            "pbrMetallicRoughness" : {
                "baseColorFactor" : [
                    0.6500057578086853,
                    0.5428690314292908,
                    0.3948424458503723,
                    1
                ],
                "metallicFactor" : 0.43478259444236755,
                "roughnessFactor" : 0.3347826600074768
            }
        },
        {
            "doubleSided" : true,
            "name" : "Material.004",
            "pbrMetallicRoughness" : {
                "baseColorFactor" : [
                    0.39311447739601135,
                    0.003370886202901602,
                    0.005827379412949085,
                    1
                ],
                "metallicFactor" : 0,
                "roughnessFactor" : 0.5695652365684509
            }
        },
        {
            "doubleSided" : true,
            "name" : "Material.003",
            "pbrMetallicRoughness" : {
                "baseColorFactor" : [
                    0.46720096468925476,
                    0.46720096468925476,
                    0.46720096468925476,
                    1
                ],
                "metallicFactor" : 0.8792270421981812,
                "roughnessFactor" : 0
            }
        },
        {
            "doubleSided" : true,
            "name" : "Material.002",
            "pbrMetallicRoughness" : {
                "baseColorFactor" : [
                    0,
                    0,
                    0,
                    1
                ],
                "metallicFactor" : 0,
                "roughnessFactor" : 0.8478261232376099
            }
        }
    ],
    "meshes" : [
        {
            "name" : "Plane.003",
            "primitives" : [
                {
                    "attributes" : {
                        "POSITION" : 0,
                        "NORMAL" : 1,
                        "TEXCOORD_0" : 2
                    },
                    "indices" : 3,
                    "material" : 0
                }
            ]
        },
        {
            "name" : "Plane.004",
            "primitives" : [
                {
                    "attributes" : {
                        "POSITION" : 4,
                        "NORMAL" : 5,
                        "TEXCOORD_0" : 6
                    },
                    "indices" : 7,
                    "material" : 1
                },
                {
                    "attributes" : {
                        "POSITION" : 8,
                        "NORMAL" : 9,
                        "TEXCOORD_0" : 10
                    },
                    "indices" : 11,
                    "material" : 2
                }
            ]
        },
        {
            "name" : "Plane.005",
            "primitives" : [
                {
                    "attributes" : {
                        "POSITION" : 12,
                        "NORMAL" : 13,
                        "TEXCOORD_0" : 14
                    },
                    "indices" : 15,
                    "material" : 3
                }
            ]
        },
        {
            "name" : "Plane.012",
            "primitives" : [
                {
                    "attributes" : {
                        "POSITION" : 16,
                        "NORMAL" : 17,
                        "TEXCOORD_0" : 18
                    },
                    "indices" : 19,
                    "material" : 4
                }
            ]
        },
        {
            "name" : "Plane.009",
            "primitives" : [
                {
                    "attributes" : {
                        "POSITION" : 20,
                        "NORMAL" : 21,
                        "TEXCOORD_0" : 22
                    },
                    "indices" : 23,
                    "material" : 5
                }
            ]
        },
        {
            "name" : "Plane.010",
            "primitives" : [
                {
                    "attributes" : {
                        "POSITION" : 24,
                        "NORMAL" : 25,
                        "TEXCOORD_0" : 26
                    },
                    "indices" : 23,
                    "material" : 5
                }
            ]
        },
        {
            "name" : "Plane.011",
            "primitives" : [
                {
                    "attributes" : {
                        "POSITION" : 27,
                        "NORMAL" : 28,
                        "TEXCOORD_0" : 29
                    },
                    "indices" : 23,
                    "material" : 5
                }
            ]
        }
    ],
    "textures" : [
        {
            "sampler" : 0,
            "source" : 0
        }
    ],
    "images" : [
        {
            "bufferView" : 4,
            "mimeType" : "image/png",
            "name" : "DmanAll"
        }
    ],
    "accessors" : [
        {
            "bufferView" : 0,
            "componentType" : 5126,
            "count" : 911,
            "max" : [
                1,
                0.7029426693916321,
                0.10185130685567856
            ],
            "min" : [
                -1,
                -0.7029426097869873,
                -0.03814834728837013
            ],
            "type" : "VEC3"
        },
        {
            "bufferView" : 1,
            "componentType" : 5126,
            "count" : 911,
            "type" : "VEC3"
        },
        {
            "bufferView" : 2,
            "componentType" : 5126,
            "count" : 911,
            "type" : "VEC2"
        },
        {
            "bufferView" : 3,
            "componentType" : 5123,
            "count" : 4794,
            "type" : "SCALAR"
        },
        {
            "bufferView" : 5,
            "componentType" : 5126,
            "count" : 1771,
            "max" : [
                1.600000023841858,
                1,
                0
            ],
            "min" : [
                -1.600000023841858,
                -1.100000023841858,
                -0.30000001192092896
            ],
            "type" : "VEC3"
        },
        {
            "bufferView" : 6,
            "componentType" : 5126,
            "count" : 1771,
            "type" : "VEC3"
        },
        {
            "bufferView" : 7,
            "componentType" : 5126,
            "count" : 1771,
            "type" : "VEC2"
        },
        {
            "bufferView" : 8,
            "componentType" : 5123,
            "count" : 7560,
            "type" : "SCALAR"
        },
        {
            "bufferView" : 9,
            "componentType" : 5126,
            "count" : 3949,
            "max" : [
                1.6000001430511475,
                1,
                -0.30000001192092896
            ],
            "min" : [
                -1.6000001430511475,
                -1.2000012397766113,
                -2.329242706298828
            ],
            "type" : "VEC3"
        },
        {
            "bufferView" : 10,
            "componentType" : 5126,
            "count" : 3949,
            "type" : "VEC3"
        },
        {
            "bufferView" : 11,
            "componentType" : 5126,
            "count" : 3949,
            "type" : "VEC2"
        },
        {
            "bufferView" : 12,
            "componentType" : 5123,
            "count" : 17364,
            "type" : "SCALAR"
        },
        {
            "bufferView" : 13,
            "componentType" : 5126,
            "count" : 42,
            "max" : [
                0.040273476392030716,
                0.09999999403953552,
                0.027869313955307007
            ],
            "min" : [
                -0.040324319154024124,
                -0.09999999403953552,
                -0.032930031418800354
            ],
            "type" : "VEC3"
        },
        {
            "bufferView" : 14,
            "componentType" : 5126,
            "count" : 42,
            "type" : "VEC3"
        },
        {
            "bufferView" : 15,
            "componentType" : 5126,
            "count" : 42,
            "type" : "VEC2"
        },
        {
            "bufferView" : 16,
            "componentType" : 5123,
            "count" : 84,
            "type" : "SCALAR"
        },
        {
            "bufferView" : 17,
            "componentType" : 5126,
            "count" : 744,
            "max" : [
                0.1993570327758789,
                0.18971028923988342,
                0.02500005066394806
            ],
            "min" : [
                -0.12152576446533203,
                -0.17799314856529236,
                -0.02500002458691597
            ],
            "type" : "VEC3"
        },
        {
            "bufferView" : 18,
            "componentType" : 5126,
            "count" : 744,
            "type" : "VEC3"
        },
        {
            "bufferView" : 19,
            "componentType" : 5126,
            "count" : 744,
            "type" : "VEC2"
        },
        {
            "bufferView" : 20,
            "componentType" : 5123,
            "count" : 4440,
            "type" : "SCALAR"
        },
        {
            "bufferView" : 21,
            "componentType" : 5126,
            "count" : 262,
            "max" : [
                0.05110597610473633,
                0.07881435751914978,
                0.02499993145465851
            ],
            "min" : [
                -0.05110609531402588,
                -0.0527266263961792,
                -0.030999986454844475
            ],
            "type" : "VEC3"
        },
        {
            "bufferView" : 22,
            "componentType" : 5126,
            "count" : 262,
            "type" : "VEC3"
        },
        {
            "bufferView" : 23,
            "componentType" : 5126,
            "count" : 262,
            "type" : "VEC2"
        },
        {
            "bufferView" : 24,
            "componentType" : 5123,
            "count" : 420,
            "type" : "SCALAR"
        },
        {
            "bufferView" : 25,
            "componentType" : 5126,
            "count" : 262,
            "max" : [
                0.05110597610473633,
                0.07881435751914978,
                0.02499993145465851
            ],
            "min" : [
                -0.05110609531402588,
                -0.0527266263961792,
                -0.030999986454844475
            ],
            "type" : "VEC3"
        },
        {
            "bufferView" : 26,
            "componentType" : 5126,
            "count" : 262,
            "type" : "VEC3"
        },
        {
            "bufferView" : 27,
            "componentType" : 5126,
            "count" : 262,
            "type" : "VEC2"
        },
        {
            "bufferView" : 28,
            "componentType" : 5126,
            "count" : 262,
            "max" : [
                0.05110597610473633,
                0.07881435751914978,
                0.02499993145465851
            ],
            "min" : [
                -0.05110609531402588,
                -0.0527266263961792,
                -0.030999986454844475
            ],
            "type" : "VEC3"
        },
        {
            "bufferView" : 29,
            "componentType" : 5126,
            "count" : 262,
            "type" : "VEC3"
        },
        {
            "bufferView" : 30,
            "componentType" : 5126,
            "count" : 262,
            "type" : "VEC2"
        }
    ],
    "bufferViews" : [
        {
            "buffer" : 0,
            "byteLength" : 10932,
            "byteOffset" : 0
        },
        {
            "buffer" : 0,
            "byteLength" : 10932,
            "byteOffset" : 10932
        },
        {
            "buffer" : 0,
            "byteLength" : 7288,
            "byteOffset" : 21864
        },
        {
            "buffer" : 0,
            "byteLength" : 9588,
            "byteOffset" : 29152
        },
        {
            "buffer" : 0,
            "byteLength" : 19207,
            "byteOffset" : 38740
        },
        {
            "buffer" : 0,
            "byteLength" : 21252,
            "byteOffset" : 57948
        },
        {
            "buffer" : 0,
            "byteLength" : 21252,
            "byteOffset" : 79200
        },
        {
            "buffer" : 0,
            "byteLength" : 14168,
            "byteOffset" : 100452
        },
        {
            "buffer" : 0,
            "byteLength" : 15120,
            "byteOffset" : 114620
        },
        {
            "buffer" : 0,
            "byteLength" : 47388,
            "byteOffset" : 129740
        },
        {
            "buffer" : 0,
            "byteLength" : 47388,
            "byteOffset" : 177128
        },
        {
            "buffer" : 0,
            "byteLength" : 31592,
            "byteOffset" : 224516
        },
        {
            "buffer" : 0,
            "byteLength" : 34728,
            "byteOffset" : 256108
        },
        {
            "buffer" : 0,
            "byteLength" : 504,
            "byteOffset" : 290836
        },
        {
            "buffer" : 0,
            "byteLength" : 504,
            "byteOffset" : 291340
        },
        {
            "buffer" : 0,
            "byteLength" : 336,
            "byteOffset" : 291844
        },
        {
            "buffer" : 0,
            "byteLength" : 168,
            "byteOffset" : 292180
        },
        {
            "buffer" : 0,
            "byteLength" : 8928,
            "byteOffset" : 292348
        },
        {
            "buffer" : 0,
            "byteLength" : 8928,
            "byteOffset" : 301276
        },
        {
            "buffer" : 0,
            "byteLength" : 5952,
            "byteOffset" : 310204
        },
        {
            "buffer" : 0,
            "byteLength" : 8880,
            "byteOffset" : 316156
        },
        {
            "buffer" : 0,
            "byteLength" : 3144,
            "byteOffset" : 325036
        },
        {
            "buffer" : 0,
            "byteLength" : 3144,
            "byteOffset" : 328180
        },
        {
            "buffer" : 0,
            "byteLength" : 2096,
            "byteOffset" : 331324
        },
        {
            "buffer" : 0,
            "byteLength" : 840,
            "byteOffset" : 333420
        },
        {
            "buffer" : 0,
            "byteLength" : 3144,
            "byteOffset" : 334260
        },
        {
            "buffer" : 0,
            "byteLength" : 3144,
            "byteOffset" : 337404
        },
        {
            "buffer" : 0,
            "byteLength" : 2096,
            "byteOffset" : 340548
        },
        {
            "buffer" : 0,
            "byteLength" : 3144,
            "byteOffset" : 342644
        },
        {
            "buffer" : 0,
            "byteLength" : 3144,
            "byteOffset" : 345788
        },
        {
            "buffer" : 0,
            "byteLength" : 2096,
            "byteOffset" : 348932
        }
    ],
    "samplers" : [
        {
            "magFilter" : 9729,
            "minFilter" : 9987
        }
    ],
    "buffers" : [
        {
            "byteLength" : 351028,
            "uri" : "data:application/octet-stream;base64,"
        }
    ]
}
