{
    "asset" : {
        "copyright" : "Percival Websystems",
        "generator" : "Khronos glTF Blender I/O v1.5.17",
        "version" : "2.0"
    },
    "extensionsUsed" : [
        "KHR_materials_transmission"
    ],
    "scene" : 0,
    "scenes" : [
        {
            "name" : "Scene",
            "nodes" : [
                0,
                2,
                3
            ]
        }
    ],
    "nodes" : [
        {
            "mesh" : 0,
            "name" : "Glass"
        },
        {
            "mesh" : 1,
            "name" : "Cylinder",
            "translation" : [
                3,
                2,
                -1.100000023841858
            ]
        },
        {
            "children" : [
                1
            ],
            "mesh" : 2,
            "name" : "Case",
            "translation" : [
                0,
                0,
                0.10000000149011612
            ]
        },
        {
            "mesh" : 3,
            "name" : "Plane"
        }
    ],
    "materials" : [
        {
            "doubleSided" : true,
            "emissiveFactor" : [
                1,
                1,
                1
            ],
            "emissiveTexture" : {
                "index" : 0
            },
            "extensions" : {
                "KHR_materials_transmission" : {
                    "transmissionFactor" : 0.05454545468091965
                }
            },
            "name" : "Material.001",
            "pbrMetallicRoughness" : {
                "baseColorFactor" : [
                    0,
                    0,
                    0,
                    1
                ],
                "metallicFactor" : 0.5909090638160706,
                "roughnessFactor" : 0.5
            }
        },
        {
            "doubleSided" : true,
            "name" : "Material.002",
            "pbrMetallicRoughness" : {
                "baseColorFactor" : [
                    0.3919176161289215,
                    0.3919176161289215,
                    0.3919176161289215,
                    1
                ],
                "metallicFactor" : 0,
                "roughnessFactor" : 0.5
            }
        },
        {
            "doubleSided" : true,
            "name" : "Material.004",
            "pbrMetallicRoughness" : {
                "baseColorFactor" : [
                    0.8000000715255737,
                    0,
                    0.002029338851571083,
                    1
                ],
                "metallicFactor" : 0,
                "roughnessFactor" : 0.5
            }
        }
    ],
    "meshes" : [
        {
            "name" : "Plane.003",
            "primitives" : [
                {
                    "attributes" : {
                        "POSITION" : 0,
                        "NORMAL" : 1,
                        "TEXCOORD_0" : 2
                    },
                    "indices" : 3,
                    "material" : 0
                }
            ]
        },
        {
            "name" : "Cylinder",
            "primitives" : [
                {
                    "attributes" : {
                        "POSITION" : 4,
                        "NORMAL" : 5,
                        "TEXCOORD_0" : 6
                    },
                    "indices" : 7
                }
            ]
        },
        {
            "name" : "Plane.004",
            "primitives" : [
                {
                    "attributes" : {
                        "POSITION" : 8,
                        "NORMAL" : 9,
                        "TEXCOORD_0" : 10
                    },
                    "indices" : 11,
                    "material" : 1
                }
            ]
        },
        {
            "name" : "Plane.002",
            "primitives" : [
                {
                    "attributes" : {
                        "POSITION" : 12,
                        "NORMAL" : 13,
                        "TEXCOORD_0" : 14
                    },
                    "indices" : 15,
                    "material" : 2
                }
            ]
        }
    ],
    "textures" : [
        {
            "sampler" : 0,
            "source" : 0
        }
    ],
    "images" : [
        {
            "bufferView" : 4,
            "mimeType" : "image/png",
            "name" : "DmanAll"
        }
    ],
    "accessors" : [
        {
            "bufferView" : 0,
            "componentType" : 5126,
            "count" : 911,
            "max" : [
                1,
                0.7029426693916321,
                0.10185130685567856
            ],
            "min" : [
                -1,
                -0.7029426097869873,
                -0.03814834728837013
            ],
            "type" : "VEC3"
        },
        {
            "bufferView" : 1,
            "componentType" : 5126,
            "count" : 911,
            "type" : "VEC3"
        },
        {
            "bufferView" : 2,
            "componentType" : 5126,
            "count" : 911,
            "type" : "VEC2"
        },
        {
            "bufferView" : 3,
            "componentType" : 5123,
            "count" : 4794,
            "type" : "SCALAR"
        },
        {
            "bufferView" : 5,
            "componentType" : 5126,
            "count" : 316,
            "max" : [
                -1.6468662023544312,
                -2.356865882873535,
                1.1489999294281006
            ],
            "min" : [
                -1.7531338930130005,
                -2.7731337547302246,
                1.0989999771118164
            ],
            "type" : "VEC3"
        },
        {
            "bufferView" : 6,
            "componentType" : 5126,
            "count" : 316,
            "type" : "VEC3"
        },
        {
            "bufferView" : 7,
            "componentType" : 5126,
            "count" : 316,
            "type" : "VEC2"
        },
        {
            "bufferView" : 8,
            "componentType" : 5123,
            "count" : 552,
            "type" : "SCALAR"
        },
        {
            "bufferView" : 9,
            "componentType" : 5126,
            "count" : 4445,
            "max" : [
                1.6000001430511475,
                1,
                -0.0007151365280151367
            ],
            "min" : [
                -1.6000001430511475,
                -1.2000012397766113,
                -2.329242706298828
            ],
            "type" : "VEC3"
        },
        {
            "bufferView" : 10,
            "componentType" : 5126,
            "count" : 4445,
            "type" : "VEC3"
        },
        {
            "bufferView" : 11,
            "componentType" : 5126,
            "count" : 4445,
            "type" : "VEC2"
        },
        {
            "bufferView" : 12,
            "componentType" : 5123,
            "count" : 17352,
            "type" : "SCALAR"
        },
        {
            "bufferView" : 13,
            "componentType" : 5126,
            "count" : 51,
            "max" : [
                -1.2250529527664185,
                -0.4187992513179779,
                0.14000000059604645
            ],
            "min" : [
                -1.3011837005615234,
                -0.721200704574585,
                0.08865810185670853
            ],
            "type" : "VEC3"
        },
        {
            "bufferView" : 14,
            "componentType" : 5126,
            "count" : 51,
            "type" : "VEC3"
        },
        {
            "bufferView" : 15,
            "componentType" : 5126,
            "count" : 51,
            "type" : "VEC2"
        },
        {
            "bufferView" : 16,
            "componentType" : 5123,
            "count" : 84,
            "type" : "SCALAR"
        }
    ],
    "bufferViews" : [
        {
            "buffer" : 0,
            "byteLength" : 10932,
            "byteOffset" : 0
        },
        {
            "buffer" : 0,
            "byteLength" : 10932,
            "byteOffset" : 10932
        },
        {
            "buffer" : 0,
            "byteLength" : 7288,
            "byteOffset" : 21864
        },
        {
            "buffer" : 0,
            "byteLength" : 9588,
            "byteOffset" : 29152
        },
        {
            "buffer" : 0,
            "byteLength" : 19207,
            "byteOffset" : 38740
        },
        {
            "buffer" : 0,
            "byteLength" : 3792,
            "byteOffset" : 57948
        },
        {
            "buffer" : 0,
            "byteLength" : 3792,
            "byteOffset" : 61740
        },
        {
            "buffer" : 0,
            "byteLength" : 2528,
            "byteOffset" : 65532
        },
        {
            "buffer" : 0,
            "byteLength" : 1104,
            "byteOffset" : 68060
        },
        {
            "buffer" : 0,
            "byteLength" : 53340,
            "byteOffset" : 69164
        },
        {
            "buffer" : 0,
            "byteLength" : 53340,
            "byteOffset" : 122504
        },
        {
            "buffer" : 0,
            "byteLength" : 35560,
            "byteOffset" : 175844
        },
        {
            "buffer" : 0,
            "byteLength" : 34704,
            "byteOffset" : 211404
        },
        {
            "buffer" : 0,
            "byteLength" : 612,
            "byteOffset" : 246108
        },
        {
            "buffer" : 0,
            "byteLength" : 612,
            "byteOffset" : 246720
        },
        {
            "buffer" : 0,
            "byteLength" : 408,
            "byteOffset" : 247332
        },
        {
            "buffer" : 0,
            "byteLength" : 168,
            "byteOffset" : 247740
        }
    ],
    "samplers" : [
        {
            "magFilter" : 9729,
            "minFilter" : 9987
        }
    ],
    "buffers" : [
        {
            "byteLength" : 247908,
            "uri" : "data:application/octet-stream;base64,"
        }
    ]
}
