{
    "asset" : {
        "copyright" : "Percival Websystems",
        "generator" : "Khronos glTF Blender I/O v1.5.17",
        "version" : "2.0"
    },
    "extensionsUsed" : [
        "KHR_materials_transmission"
    ],
    "scene" : 0,
    "scenes" : [
        {
            "name" : "Scene",
            "nodes" : [
                0,
                1,
                2,
                3,
                4,
                5,
                6,
                7
            ]
        }
    ],
    "nodes" : [
        {
            "camera" : 0,
            "name" : "Camera",
            "rotation" : [
                0.018325354903936386,
                0.00012786919251084328,
                0.006980703677982092,
                0.9998077154159546
            ],
            "translation" : [
                0.2910580635070801,
                -0.5176821351051331,
                5.794862270355225
            ]
        },
        {
            "name" : "Empty",
            "scale" : [
                0.800000011920929,
                0.800000011920929,
                0.800000011920929
            ],
            "translation" : [
                0,
                -0.7364546656608582,
                -2
            ]
        },
        {
            "mesh" : 0,
            "name" : "Glass"
        },
        {
            "mesh" : 1,
            "name" : "Case",
            "translation" : [
                0,
                0,
                0.10000000149011612
            ]
        },
        {
            "name" : "Area",
            "rotation" : [
                -0.02096826210618019,
                0.28686627745628357,
                0,
                0.9577411413192749
            ],
            "translation" : [
                0.6995820999145508,
                0.0896483063697815,
                3.994610071182251
            ]
        },
        {
            "mesh" : 2,
            "name" : "Plane.001",
            "rotation" : [
                0.7071068286895752,
                0,
                0,
                0.7071068286895752
            ],
            "scale" : [
                2.68405818939209,
                2.68405818939209,
                2.68405818939209
            ],
            "translation" : [
                0.05832389369606972,
                -1.0583289861679077,
                0.03464435413479805
            ]
        },
        {
            "mesh" : 3,
            "name" : "Roundcube",
            "translation" : [
                -1.2799999713897705,
                -0.5699999928474426,
                0.1386580914258957
            ]
        },
        {
            "mesh" : 4,
            "name" : "Plane",
            "translation" : [
                -1.3050845861434937,
                0.6378566026687622,
                0.10000002384185791
            ]
        }
    ],
    "cameras" : [
        {
            "name" : "Camera",
            "perspective" : {
                "aspectRatio" : 1.7777777777777777,
                "yfov" : 0.39959652046304894,
                "zfar" : 100,
                "znear" : 0.10000000149011612
            },
            "type" : "perspective"
        }
    ],
    "materials" : [
        {
            "doubleSided" : true,
            "emissiveFactor" : [
                1,
                1,
                1
            ],
            "emissiveTexture" : {
                "index" : 0
            },
            "extensions" : {
                "KHR_materials_transmission" : {
                    "transmissionFactor" : 0.05454545468091965
                }
            },
            "name" : "Material.001",
            "pbrMetallicRoughness" : {
                "baseColorFactor" : [
                    0,
                    0,
                    0,
                    1
                ],
                "metallicFactor" : 0.5909090638160706,
                "roughnessFactor" : 0.5
            }
        },
        {
            "doubleSided" : true,
            "name" : "Material.002",
            "pbrMetallicRoughness" : {
                "baseColorFactor" : [
                    0.3919176161289215,
                    0.3919176161289215,
                    0.3919176161289215,
                    1
                ],
                "metallicFactor" : 0,
                "roughnessFactor" : 0.5
            }
        },
        {
            "doubleSided" : true,
            "name" : "Material.003",
            "pbrMetallicRoughness" : {
                "baseColorFactor" : [
                    0.800000011920929,
                    0.800000011920929,
                    0.800000011920929,
                    1
                ],
                "roughnessFactor" : 0.29545456171035767
            }
        }
    ],
    "meshes" : [
        {
            "name" : "Plane.003",
            "primitives" : [
                {
                    "attributes" : {
                        "POSITION" : 0,
                        "NORMAL" : 1,
                        "TEXCOORD_0" : 2
                    },
                    "indices" : 3,
                    "material" : 0
                }
            ]
        },
        {
            "name" : "Plane.004",
            "primitives" : [
                {
                    "attributes" : {
                        "POSITION" : 4,
                        "NORMAL" : 5,
                        "TEXCOORD_0" : 6
                    },
                    "indices" : 7,
                    "material" : 1
                }
            ]
        },
        {
            "name" : "Plane.005",
            "primitives" : [
                {
                    "attributes" : {
                        "POSITION" : 8,
                        "NORMAL" : 9,
                        "TEXCOORD_0" : 10
                    },
                    "indices" : 11,
                    "material" : 2
                }
            ]
        },
        {
            "name" : "Roundcube",
            "primitives" : [
                {
                    "attributes" : {
                        "POSITION" : 12,
                        "NORMAL" : 13
                    },
                    "indices" : 14
                }
            ]
        },
        {
            "name" : "Plane.001",
            "primitives" : [
                {
                    "attributes" : {
                        "POSITION" : 15,
                        "NORMAL" : 16,
                        "TEXCOORD_0" : 17
                    },
                    "indices" : 18
                }
            ]
        }
    ],
    "textures" : [
        {
            "sampler" : 0,
            "source" : 0
        }
    ],
    "images" : [
        {
            "bufferView" : 4,
            "mimeType" : "image/png",
            "name" : "DmanAll"
        }
    ],
    "accessors" : [
        {
            "bufferView" : 0,
            "componentType" : 5126,
            "count" : 961,
            "max" : [
                1,
                0.7029426693916321,
                0.09999977052211761
            ],
            "min" : [
                -1,
                -0.7029426097869873,
                1.862645149230957e-08
            ],
            "type" : "VEC3"
        },
        {
            "bufferView" : 1,
            "componentType" : 5126,
            "count" : 961,
            "type" : "VEC3"
        },
        {
            "bufferView" : 2,
            "componentType" : 5126,
            "count" : 961,
            "type" : "VEC2"
        },
        {
            "bufferView" : 3,
            "componentType" : 5123,
            "count" : 4794,
            "type" : "SCALAR"
        },
        {
            "bufferView" : 5,
            "componentType" : 5126,
            "count" : 8565,
            "max" : [
                1.6000001430511475,
                1,
                -0.0007151365280151367
            ],
            "min" : [
                -1.6000001430511475,
                -1.2000012397766113,
                -2.329242706298828
            ],
            "type" : "VEC3"
        },
        {
            "bufferView" : 6,
            "componentType" : 5126,
            "count" : 8565,
            "type" : "VEC3"
        },
        {
            "bufferView" : 7,
            "componentType" : 5126,
            "count" : 8565,
            "type" : "VEC2"
        },
        {
            "bufferView" : 8,
            "componentType" : 5123,
            "count" : 23598,
            "type" : "SCALAR"
        },
        {
            "bufferView" : 9,
            "componentType" : 5126,
            "count" : 4,
            "max" : [
                1,
                1,
                0
            ],
            "min" : [
                -1,
                -1,
                0
            ],
            "type" : "VEC3"
        },
        {
            "bufferView" : 10,
            "componentType" : 5126,
            "count" : 4,
            "type" : "VEC3"
        },
        {
            "bufferView" : 11,
            "componentType" : 5126,
            "count" : 4,
            "type" : "VEC2"
        },
        {
            "bufferView" : 12,
            "componentType" : 5123,
            "count" : 6,
            "type" : "SCALAR"
        },
        {
            "bufferView" : 13,
            "componentType" : 5126,
            "count" : 9600,
            "max" : [
                0.06989265233278275,
                0.17489264905452728,
                0.06989261507987976
            ],
            "min" : [
                -0.06989265233278275,
                -0.17489264905452728,
                -0.06989261507987976
            ],
            "type" : "VEC3"
        },
        {
            "bufferView" : 14,
            "componentType" : 5126,
            "count" : 9600,
            "type" : "VEC3"
        },
        {
            "bufferView" : 15,
            "componentType" : 5123,
            "count" : 14400,
            "type" : "SCALAR"
        },
        {
            "bufferView" : 16,
            "componentType" : 5126,
            "count" : 960,
            "max" : [
                0.06937970966100693,
                0.13352681696414948,
                0.010000001639127731
            ],
            "min" : [
                -0.06937970966100693,
                -0.13352681696414948,
                -0.010000001639127731
            ],
            "type" : "VEC3"
        },
        {
            "bufferView" : 17,
            "componentType" : 5126,
            "count" : 960,
            "type" : "VEC3"
        },
        {
            "bufferView" : 18,
            "componentType" : 5126,
            "count" : 960,
            "type" : "VEC2"
        },
        {
            "bufferView" : 19,
            "componentType" : 5123,
            "count" : 1440,
            "type" : "SCALAR"
        }
    ],
    "bufferViews" : [
        {
            "buffer" : 0,
            "byteLength" : 11532,
            "byteOffset" : 0
        },
        {
            "buffer" : 0,
            "byteLength" : 11532,
            "byteOffset" : 11532
        },
        {
            "buffer" : 0,
            "byteLength" : 7688,
            "byteOffset" : 23064
        },
        {
            "buffer" : 0,
            "byteLength" : 9588,
            "byteOffset" : 30752
        },
        {
            "buffer" : 0,
            "byteLength" : 19207,
            "byteOffset" : 40340
        },
        {
            "buffer" : 0,
            "byteLength" : 102780,
            "byteOffset" : 59548
        },
        {
            "buffer" : 0,
            "byteLength" : 102780,
            "byteOffset" : 162328
        },
        {
            "buffer" : 0,
            "byteLength" : 68520,
            "byteOffset" : 265108
        },
        {
            "buffer" : 0,
            "byteLength" : 47196,
            "byteOffset" : 333628
        },
        {
            "buffer" : 0,
            "byteLength" : 48,
            "byteOffset" : 380824
        },
        {
            "buffer" : 0,
            "byteLength" : 48,
            "byteOffset" : 380872
        },
        {
            "buffer" : 0,
            "byteLength" : 32,
            "byteOffset" : 380920
        },
        {
            "buffer" : 0,
            "byteLength" : 12,
            "byteOffset" : 380952
        },
        {
            "buffer" : 0,
            "byteLength" : 115200,
            "byteOffset" : 380964
        },
        {
            "buffer" : 0,
            "byteLength" : 115200,
            "byteOffset" : 496164
        },
        {
            "buffer" : 0,
            "byteLength" : 28800,
            "byteOffset" : 611364
        },
        {
            "buffer" : 0,
            "byteLength" : 11520,
            "byteOffset" : 640164
        },
        {
            "buffer" : 0,
            "byteLength" : 11520,
            "byteOffset" : 651684
        },
        {
            "buffer" : 0,
            "byteLength" : 7680,
            "byteOffset" : 663204
        },
        {
            "buffer" : 0,
            "byteLength" : 2880,
            "byteOffset" : 670884
        }
    ],
    "samplers" : [
        {
            "magFilter" : 9729,
            "minFilter" : 9987
        }
    ],
    "buffers" : [
        {
            "byteLength" : 673764,
            "uri" : "data:application/octet-stream;base64,"
        }
    ]
}
